<?xml version="1.0" standalone="no"?>
<!DOCTYPE svg PUBLIC "-//W3C//DTD SVG 20010904//EN"
 "http://www.w3.org/TR/2001/REC-SVG-20010904/DTD/svg10.dtd">
<svg version="1.0" xmlns="http://www.w3.org/2000/svg"
 width="1280.000000pt" height="1280.000000pt" viewBox="0 0 1280.000000 1280.000000"
 preserveAspectRatio="xMidYMid meet">

<g transform="translate(0.000000,1280.000000) scale(0.100000,-0.100000)"
fill="#000000" stroke="none">
<path d="M0 6400 l0 -6400 6400 0 6400 0 0 6400 0 6400 -6400 0 -6400 0 0
-6400z m5099 5505 c220 -214 400 -393 398 -397 -1 -5 -398 -404 -882 -888
l-880 -880 1318 -1318 1317 -1317 1304 1305 1305 1305 -462 472 -462 473 -836
-836 -835 -835 -394 405 c-217 222 -396 408 -397 413 -2 4 553 564 1232 1243
l1235 1235 1284 -1284 c707 -707 1282 -1289 1279 -1294 -10 -17 -4276 -4227
-4283 -4227 -12 0 -4215 4281 -4215 4293 0 16 2548 2526 2562 2524 6 -1 191
-177 412 -392z m-2210 -4794 l1691 -1699 -1260 -1248 -1261 -1249 293 -288
c161 -158 363 -354 448 -436 l155 -149 1700 1679 1699 1680 1699 -1698 1698
-1698 424 430 424 430 -1250 1250 c-687 688 -1249 1255 -1249 1260 0 6 772
782 1715 1725 l1715 1715 427 -427 428 -428 -1293 -1293 c-710 -710 -1292
-1296 -1292 -1300 0 -7 1730 -1775 2287 -2338 l174 -175 -1251 -1235 c-689
-679 -1256 -1236 -1262 -1238 -6 -2 -578 563 -1272 1255 -693 693 -1456 1453
-1694 1689 l-432 430 -1695 -1695 -1695 -1695 -128 130 c-225 228 -2079 2104
-2235 2261 l-150 152 1224 1247 c673 685 1225 1250 1227 1255 2 5 -568 593
-1267 1306 l-1271 1297 152 146 c84 80 269 259 413 398 143 139 263 252 266
252 4 1 768 -763 1698 -1698z"/>
</g>
</svg>
